# xmcd CD database file
#
# Track frame offsets:
#	150
#	18359
#	43031
#	87233
#	109406
#	158952
#	213297
#	245385
#
# Disc length: 3947 seconds
#
# Revision: 2
# Processed by: cddbd v1.5PL3 Copyright (c) Steve Scherf et al.
# Submitted via: CDex 1.50
#
DISCID=630f6908
DTITLE=The Cream - The Cream Remasters 4 - Live at the Fillmore [CD1]
DYEAR=2004
DGENRE=Psychedelic Rock
TTITLE0=Tales of Brave Ulysses
TTITLE1=Sunshine of Your Love
TTITLE2=N.S.U.
TTITLE3=Lawdy mama (trad.)
TTITLE4=Sweet Wine
TTITLE5=Spoonful
TTITLE6=Sleepy Time Time
TTITLE7=Steppin' Out
EXTD=YEAR: 2004
EXTT0=
EXTT1=
EXTT2=
EXTT3=
EXTT4=
EXTT5=
EXTT6=
EXTT7=
PLAYORDER=
